<?xml version="1.0" encoding="UTF-8"?>
<!-- Generated by Pixelmator Pro 3.5.6 -->
<svg width="301" height="230" viewBox="0 0 301 230" xmlns="http://www.w3.org/2000/svg">
    <g id="group">
        <path id="Path" fill="#000000" fill-rule="evenodd" stroke="none" d="M 134.154022 22.218582 L 231.268219 22.218582 L 283.321899 74.284515 L 283.321899 156.374832 L 231.268219 208.428528 L 143.836716 208.428528 C 141.311966 205.524155 137.66954 203.824295 133.821167 203.75415 C 126.691063 203.767502 120.832237 209.637482 120.832237 216.767578 C 120.832237 223.906586 126.70665 229.781006 133.845657 229.781006 C 137.701813 229.781006 141.365387 228.06665 143.836716 225.106628 L 238.273636 225.106628 L 300 163.381378 L 300 67.266861 L 238.273636 5.54158 L 134.154022 5.54158 C 131.633713 2.637222 127.994629 0.937363 124.149605 0.866104 C 117.01059 0.866104 111.136185 6.741623 111.136185 13.880646 C 111.136185 21.019653 117.01059 26.894073 124.149605 26.894073 C 127.994629 26.822815 131.633713 25.122955 134.154022 22.218582 Z M 124.149605 8.206619 C 124.16964 8.205505 124.188568 8.205505 124.207489 8.205505 C 127.078461 8.205505 129.448486 10.549927 129.479645 13.420883 L 129.479645 13.501038 C 129.483002 13.57785 129.484116 13.653549 129.484116 13.730362 C 129.484116 16.660324 127.072899 19.070419 124.142921 19.070419 C 121.313148 19.070419 118.949799 16.821747 118.809532 13.995316 C 118.797287 13.830536 118.797287 13.665787 118.809532 13.501038 C 118.910843 10.618942 121.266388 8.282318 124.149605 8.206619 Z M 134.154022 211.426392 C 137.083984 211.426392 139.495193 213.837616 139.495193 216.767578 C 139.495193 219.697556 137.083984 222.108765 134.154022 222.108765 C 131.224045 222.108765 128.812836 219.697556 128.812836 216.767578 C 128.812836 216.74086 128.812836 216.714142 128.812836 216.687424 C 128.812836 213.822037 131.151703 211.457565 134.015991 211.426392 L 134.154022 211.426392 Z"/>
        <path id="path1" fill="#000000" fill-rule="evenodd" stroke="none" d="M 224.583389 38.907822 L 100.454933 38.907822 L 100.454933 39.240677 C 98.076004 36.60347 94.656227 35.13739 91.10508 35.23201 C 84.012833 35.308823 78.220795 41.164307 78.220795 48.256561 C 78.220795 55.402252 84.099655 61.282227 91.245346 61.282227 C 95.414322 61.282227 99.338387 59.28067 101.786331 55.907654 L 217.576859 55.907654 L 249.955673 88.274231 L 249.955673 142.660095 L 217.576859 175.03891 L 99.788124 175.03891 C 97.263367 172.134537 93.620941 170.434677 89.772575 170.364532 C 82.642464 170.377899 76.783646 176.247864 76.783646 183.37796 C 76.783646 190.516968 82.658051 196.391388 89.797066 196.391388 C 93.654335 196.391388 97.316795 194.677032 99.788124 191.71701 L 224.24942 191.71701 L 266.299805 149.677765 L 266.299805 80.958221 L 224.583389 38.907822 Z M 91.10508 42.916489 C 91.108429 42.916489 91.112877 42.916489 91.116219 42.916489 C 94.046188 42.916489 96.457405 45.327713 96.457405 48.257675 C 96.457405 51.187653 94.046188 53.598846 91.116219 53.598846 C 88.190704 53.598846 85.781715 51.194321 85.77504 48.268799 C 85.442184 45.248672 88.107208 42.916489 91.10508 42.916489 Z M 90.105423 177.749573 C 93.035393 177.749573 95.446602 180.160797 95.446602 183.090759 C 95.446602 186.020721 93.035393 188.431931 90.105423 188.431931 C 87.175453 188.431931 84.764244 186.020721 84.764244 183.090759 C 84.431396 180.047241 87.107552 177.749573 90.105423 177.749573 Z"/>
        <path id="path2" fill="#000000" fill-rule="evenodd" stroke="none" d="M 210.570297 157.707352 L 54.407017 157.707352 C 52.031422 160.109665 48.769718 161.435486 45.391125 161.370926 C 38.252113 161.370926 32.377705 155.496506 32.377705 148.357498 C 32.377705 141.218475 38.252113 135.34407 45.391125 135.34407 C 49.651379 135.415314 53.62888 137.527069 56.072376 141.018097 L 97.422554 141.018097 L 80.078743 123.66317 L 23.00448 123.66317 C 20.494192 126.568649 16.864016 128.27742 13.023441 128.360916 C 13.020102 128.360916 13.016762 128.360916 13.014535 128.360916 C 5.875521 128.360916 0 122.485397 0 115.346375 C 0 108.207359 5.875521 102.332954 13.014535 102.332954 C 16.870693 102.332954 20.534267 104.047295 23.00448 107.008438 L 87.107552 107.008438 L 121.47345 140.99472 L 203.563751 140.99472 L 215.968262 128.67038 L 215.968262 102.2528 L 203.563751 89.962967 L 127.147484 89.962967 L 144.50354 107.317909 L 178.202606 107.317909 C 180.727371 104.413544 184.370911 102.713676 188.21817 102.643539 C 195.348282 102.656898 201.207108 108.526855 201.207108 115.65696 C 201.207108 122.795975 195.332687 128.67038 188.19368 128.67038 C 184.337509 128.67038 180.673935 126.956039 178.202606 123.99601 L 137.496994 123.99601 L 103.406052 89.630127 L 58.404552 89.630127 C 55.880901 92.530029 52.244049 94.229904 48.400135 94.304489 C 41.270023 94.292236 35.410088 88.421173 35.410088 81.291061 C 35.410088 74.152054 41.284496 68.277634 48.423512 68.277634 C 52.274105 68.277634 55.933224 69.987534 58.404552 72.940872 L 210.570297 72.940872 L 232.933578 95.304153 L 232.933578 135.676926 L 210.570297 157.707352 Z M 188.21817 109.650078 C 185.288193 109.650078 182.876984 112.061295 182.876984 114.991264 C 182.876984 117.921227 185.288193 120.331329 188.21817 120.331329 C 191.148132 120.331329 193.559341 117.921227 193.559341 114.991264 C 193.892197 112.280602 191.216034 109.650078 188.21817 109.650078 Z M 48.732986 75.617035 C 45.803017 75.617035 43.392918 78.028244 43.392918 80.958221 C 43.392918 83.888184 45.803017 86.299377 48.732986 86.299377 C 51.662952 86.299377 54.074165 83.888184 54.074165 80.958221 C 53.996243 78.058304 51.632896 75.694946 48.732986 75.617035 Z M 45.391125 143.016312 C 42.461159 143.016312 40.049946 145.427521 40.049946 148.357498 C 40.049946 151.287476 42.461159 153.698685 45.391125 153.698685 C 48.321095 153.698685 50.732307 151.287476 50.732307 148.357498 C 51.065155 145.359634 48.400135 143.016312 45.391125 143.016312 Z M 13.356291 109.650078 C 10.426323 109.650078 8.016224 112.061295 8.016224 114.991264 C 8.016224 117.921227 10.426323 120.331329 13.356291 120.331329 C 16.246183 120.363609 18.654057 118.018082 18.697472 115.128189 L 18.697472 114.991264 C 18.619547 112.091347 16.256201 109.728004 13.356291 109.650078 Z"/>
    </g>
</svg>
