<svg width="100%" height="100%" viewBox="0 0 270 207" version="1.1" xmlns="http://www.w3.org/2000/svg" xmlns:xlink="http://www.w3.org/1999/xlink" xml:space="preserve" xmlns:serif="http://www.serif.com/" style="fill-rule:evenodd;clip-rule:evenodd;stroke-linejoin:round;stroke-miterlimit:2;"><g id="Ebene_2"><g id="Ebene_1-2"><g id="Ebene_1-2-2"><path d="M120.829,19.327l87.238,0l46.76,46.771l0,73.742l-46.76,46.76l-78.54,0c-2.268,-2.609 -5.54,-4.136 -8.997,-4.199c-6.405,0.012 -11.668,5.285 -11.668,11.69c0,6.413 5.277,11.69 11.69,11.69c3.464,0 6.755,-1.54 8.975,-4.199l84.833,-0l55.449,-55.448l-0,-86.34l-55.449,-55.448l-93.531,-0c-2.264,-2.609 -5.533,-4.136 -8.987,-4.2c-6.413,0 -11.69,5.278 -11.69,11.691c0,6.413 5.277,11.69 11.69,11.69c3.454,-0.064 6.723,-1.591 8.987,-4.2Zm-8.987,-12.587c0.018,-0.001 0.035,-0.001 0.052,-0.001c2.579,0 4.708,2.106 4.736,4.685l-0,0.072c0.003,0.069 0.004,0.137 0.004,0.206c0,2.632 -2.166,4.797 -4.798,4.797c-2.542,0 -4.665,-2.02 -4.791,-4.559c-0.011,-0.148 -0.011,-0.296 -0,-0.444c0.091,-2.589 2.207,-4.688 4.797,-4.756Zm8.987,182.553c2.632,0 4.798,2.166 4.798,4.798c-0,2.632 -2.166,4.798 -4.798,4.798c-2.632,-0 -4.798,-2.166 -4.798,-4.798c0,-0.024 -0,-0.048 -0,-0.072c-0,-2.574 2.101,-4.698 4.674,-4.726l0.124,0Z" /><path d="M202.062,34.319l-111.505,0l-0,0.299c-2.137,-2.369 -5.209,-3.686 -8.399,-3.601c-6.371,0.069 -11.574,5.329 -11.574,11.7c-0,6.419 5.281,11.701 11.7,11.701c3.745,-0 7.27,-1.798 9.469,-4.828l104.015,-0l29.086,29.075l-0,48.855l-29.086,29.086l-105.81,0c-2.268,-2.609 -5.54,-4.136 -8.997,-4.199c-6.405,0.012 -11.668,5.285 -11.668,11.69c0,6.413 5.277,11.69 11.69,11.69c3.465,0 6.755,-1.54 8.975,-4.199l111.804,-0l37.774,-37.764l0,-61.731l-37.474,-37.774Zm-119.904,3.601c0.003,0 0.007,0 0.01,0c2.632,0 4.798,2.166 4.798,4.798c-0,2.632 -2.166,4.798 -4.798,4.798c-2.628,-0 -4.792,-2.16 -4.798,-4.788c-0.299,-2.713 2.095,-4.808 4.788,-4.808Zm-0.898,121.121c2.632,0 4.798,2.166 4.798,4.798c0,2.632 -2.166,4.798 -4.798,4.798c-2.632,-0 -4.798,-2.166 -4.798,-4.798c-0.299,-2.734 2.105,-4.798 4.798,-4.798Z" /><path d="M189.474,141.037l-140.282,-0c-2.134,2.158 -5.064,3.349 -8.099,3.291c-6.413,0 -11.69,-5.277 -11.69,-11.69c-0,-6.413 5.277,-11.69 11.69,-11.69c3.827,0.064 7.4,1.961 9.595,5.097l37.145,-0l-15.58,-15.59l-51.27,-0c-2.255,2.61 -5.516,4.145 -8.966,4.22c-0.003,-0 -0.006,-0 -0.008,-0c-6.413,-0 -11.691,-5.278 -11.691,-11.691c0,-6.413 5.278,-11.69 11.691,-11.69c3.464,0 6.755,1.54 8.974,4.2l57.584,-0l30.871,30.53l73.742,0l11.143,-11.071l0,-23.731l-11.143,-11.04l-68.645,-0l15.591,15.59l30.272,0c2.268,-2.609 5.541,-4.136 8.997,-4.199c6.405,0.012 11.668,5.285 11.668,11.69c0,6.413 -5.277,11.69 -11.69,11.69c-3.464,0 -6.755,-1.54 -8.975,-4.199l-36.566,-0l-30.624,-30.871l-40.425,-0c-2.267,2.605 -5.534,4.132 -8.987,4.199c-6.405,-0.011 -11.669,-5.285 -11.669,-11.69c-0,-6.413 5.277,-11.69 11.69,-11.69c3.459,-0 6.746,1.536 8.966,4.189l136.691,-0l20.089,20.089l-0,36.267l-20.089,19.79Zm-20.079,-43.17c-2.632,-0 -4.798,2.166 -4.798,4.798c0,2.632 2.166,4.797 4.798,4.797c2.632,0 4.798,-2.165 4.798,-4.797c0.299,-2.435 -2.105,-4.798 -4.798,-4.798Zm-125.3,-30.572c-2.632,-0 -4.797,2.166 -4.797,4.798c-0,2.632 2.165,4.798 4.797,4.798c2.632,-0 4.798,-2.166 4.798,-4.798c-0.07,-2.605 -2.193,-4.728 -4.798,-4.798Zm-3.002,60.545c-2.632,0 -4.798,2.166 -4.798,4.798c0,2.632 2.166,4.798 4.798,4.798c2.632,-0 4.798,-2.166 4.798,-4.798c0.299,-2.693 -2.095,-4.798 -4.798,-4.798Zm-28.777,-29.973c-2.632,-0 -4.797,2.166 -4.797,4.798c-0,2.632 2.165,4.797 4.797,4.797c2.596,0.029 4.759,-2.078 4.798,-4.674l0,-0.123c-0.07,-2.605 -2.193,-4.728 -4.798,-4.798Z" /></g></g></g></svg>