<?xml version="1.0" encoding="UTF-8" standalone="no"?><!DOCTYPE svg PUBLIC "-//W3C//DTD SVG 1.1//EN" "http://www.w3.org/Graphics/SVG/1.1/DTD/svg11.dtd"><svg width="100%" height="100%" viewBox="0 0 38 38" version="1.1" xmlns="http://www.w3.org/2000/svg" xmlns:xlink="http://www.w3.org/1999/xlink" xml:space="preserve" xmlns:serif="http://www.serif.com/" style="fill-rule:evenodd;clip-rule:evenodd;stroke-linejoin:round;stroke-miterlimit:2;"><g><path d="M10.85,7.673c-0.323,-0.168 -0.707,-0.173 -1.035,-0.013l-1.459,0.714c-0.394,0.193 -0.644,0.593 -0.644,1.032l0,9.594c0,0.635 0.514,1.149 1.149,1.149l19.356,-0c0.408,-0 0.786,-0.217 0.992,-0.569l0.445,-0.761c0.159,-0.271 0.2,-0.596 0.112,-0.898c-0.087,-0.302 -0.294,-0.556 -0.573,-0.701l-18.343,-9.547Z" style="fill:#a3a3a3;fill-rule:nonzero;"/><path d="M9.815,30.34c0.328,0.16 0.712,0.155 1.035,-0.013l18.343,-9.547c0.279,-0.145 0.486,-0.399 0.573,-0.701c0.088,-0.302 0.047,-0.627 -0.112,-0.898l-0.445,-0.761c-0.206,-0.352 -0.584,-0.569 -0.992,-0.569l-19.356,0c-0.635,0 -1.149,0.514 -1.149,1.149l0,9.594c0,0.439 0.25,0.839 0.644,1.032l1.459,0.714Z" style="fill:#a3a3a3;fill-rule:nonzero;"/><path d="M28.217,16.979c-1.16,-0 -2.07,0.923 -2.07,2.021c-0,1.098 0.91,2.021 2.07,2.021c1.16,0 2.071,-0.923 2.071,-2.021c-0,-1.098 -0.911,-2.021 -2.071,-2.021Z" style="fill:#a3a3a3;"/><path d="M9.783,7.381c-1.16,-0 -2.071,0.923 -2.071,2.021c0,1.098 0.911,2.022 2.071,2.022c1.16,-0 2.07,-0.924 2.07,-2.022c0,-1.098 -0.91,-2.021 -2.07,-2.021Z" style="fill:#a3a3a3;"/><path d="M9.783,26.576c-1.16,0 -2.071,0.924 -2.071,2.022c0,1.098 0.911,2.021 2.071,2.021c1.16,0 2.07,-0.923 2.07,-2.021c0,-1.098 -0.91,-2.022 -2.07,-2.022Z" style="fill:#a3a3a3;"/></g></svg>